<svg width="50" height="50" viewBox="0 0 50 50" fill="none" xmlns="http://www.w3.org/2000/svg">
<path d="M48.9829 7.86114C48.6983 6.35315 48.1422 4.97791 47.3699 3.8723C46.5976 2.76669 45.6361 1.96927 44.581 1.5594C40.6687 0.0250049 25.0173 2.71071e-05 25.0173 2.71071e-05C25.0173 2.71071e-05 9.36838 -0.0249522 5.45365 1.44165C4.3992 1.87037 3.43962 2.67907 2.66703 3.79011C1.89444 4.90115 1.33477 6.27722 1.04177 7.7862C0.00999705 13.3743 3.66027e-06 24.9643 3.66027e-06 24.9643C3.66027e-06 24.9643 -0.00998923 36.6115 1.01429 42.1424C1.58888 45.2005 3.27519 47.6163 5.41867 48.4406C9.37088 49.975 24.9798 50 24.9798 50C24.9798 50 40.6313 50.025 44.5435 48.5619C45.599 48.1528 46.5614 47.3572 47.3356 46.2538C48.1099 45.1505 48.669 43.7776 48.9579 42.2709C49.9921 36.6864 49.9996 25.0999 49.9996 25.0999C49.9996 25.0999 50.0496 13.4492 48.9829 7.86114ZM20.0108 35.7015L20.0233 14.2913L33.0316 25.0143L20.0108 35.7015Z" fill="#FF0000"/>
</svg>
