<svg width="73" height="73" viewBox="0 0 73 73" fill="none" xmlns="http://www.w3.org/2000/svg">
<g clip-path="url(#clip0_141_69)">
<rect width="73" height="73" rx="20" fill="black"/>
<path d="M67.2969 0H5.70312C2.55196 0 0 2.555 0 5.70312V67.2969C0 70.448 2.555 73 5.70312 73H67.2969C70.448 73 73 70.445 73 67.2969V5.70312C73 2.55196 70.445 0 67.2969 0ZM36.5 57.0312C34.7024 57.0312 32.9412 56.9065 31.2318 56.6662C29.5224 57.8708 19.634 64.8149 18.7002 64.9457C18.7002 64.9457 18.32 65.0947 17.9945 64.9031C17.669 64.7115 17.7268 64.2065 17.7268 64.2065C17.8242 63.5374 20.291 55.0268 20.7442 53.4603C12.3948 49.3237 6.84375 41.9963 6.84375 33.65C6.84375 20.735 20.1206 10.2656 36.5 10.2656C52.8794 10.2656 66.1562 20.735 66.1562 33.65C66.1562 46.5618 52.8794 57.0312 36.5 57.0312ZM24.4854 30.0121H21.8148V40.1774C21.8148 41.0777 21.0483 41.8108 20.1024 41.8108C19.1564 41.8108 18.393 41.0807 18.393 40.1774V30.0121H15.7224C15.2996 29.9809 14.9044 29.7909 14.6159 29.4804C14.3274 29.1698 14.1671 28.7616 14.1671 28.3377C14.1671 27.9138 14.3274 27.5056 14.6159 27.195C14.9044 26.8844 15.2996 26.6945 15.7224 26.6632H24.4824C24.9051 26.6945 25.3004 26.8844 25.5889 27.195C25.8773 27.5056 26.0377 27.9138 26.0377 28.3377C26.0377 28.7616 25.8773 29.1698 25.5889 29.4804C25.3004 29.7909 24.9051 29.9809 24.4824 30.0121M57.9012 39.0063C58.0378 39.1852 58.1374 39.3895 58.1943 39.6072C58.2513 39.825 58.2643 40.0519 58.2327 40.2747C58.2015 40.497 58.1265 40.7109 58.0122 40.904C57.8979 41.0972 57.7464 41.2658 57.5666 41.4001C57.2712 41.6253 56.9099 41.7471 56.5385 41.7469C56.273 41.7483 56.0108 41.6874 55.7731 41.5691C55.5353 41.4507 55.3287 41.2783 55.1698 41.0655L51.1578 35.7518L50.5647 36.3449V40.077C50.5639 40.5304 50.3836 40.965 50.0633 41.2859C49.743 41.6068 49.3087 41.7879 48.8553 41.7895C48.4011 41.7895 47.9655 41.609 47.6444 41.2879C47.3232 40.9667 47.1428 40.5312 47.1428 40.077V28.3727C47.1614 27.9314 47.3498 27.5143 47.6686 27.2087C47.9874 26.903 48.4121 26.7324 48.8537 26.7324C49.2954 26.7324 49.72 26.903 50.0388 27.2087C50.3577 27.5143 50.5461 27.9314 50.5647 28.3727V32.0531L55.3401 27.2777C55.4647 27.1546 55.6125 27.0574 55.7748 26.9916C55.9372 26.9259 56.1109 26.8928 56.286 26.8944C56.7119 26.8944 57.1438 27.08 57.4662 27.4024C57.7598 27.6902 57.9382 28.0752 57.9681 28.4852C57.9839 28.676 57.9583 28.8679 57.8933 29.048C57.8282 29.228 57.7251 29.3919 57.5909 29.5285L53.6915 33.4249L57.9012 39.0063ZM32.5033 28.3544C32.2143 27.5332 31.3383 26.6876 30.222 26.6632C29.1088 26.6876 28.2328 27.5332 27.9438 28.3514L23.8528 39.1219C23.3326 40.734 23.7858 41.3363 24.2573 41.5553C24.5982 41.7104 24.9686 41.7903 25.3432 41.7895C26.058 41.7895 26.6024 41.5005 26.7667 41.0351L27.6153 38.8147H32.8317L33.6804 41.0351C33.8446 41.5005 34.3891 41.7895 35.1039 41.7895C35.4787 41.7891 35.849 41.7082 36.1898 41.5522C36.6612 41.3363 37.1144 40.737 36.5943 39.1189L32.5033 28.3544ZM28.5156 35.7852L30.225 30.9307L31.9314 35.7852H28.5156ZM46.4767 39.9918C46.4671 40.4173 46.2891 40.8215 45.9817 41.1158C45.6743 41.4101 45.2627 41.5703 44.8372 41.5613H39.35C39.1391 41.5662 38.9293 41.5294 38.7326 41.4532C38.5359 41.3769 38.3562 41.2626 38.2036 41.1169C38.0511 40.9711 37.9288 40.7967 37.8437 40.6037C37.7585 40.4107 37.7123 40.2028 37.7075 39.9918V28.3727C37.7075 27.4298 38.4923 26.6632 39.4565 26.6632C40.4207 26.6632 41.2024 27.4298 41.2024 28.3727V38.4254H44.8372C45.7406 38.4254 46.4797 39.128 46.4797 39.9918" fill="#F7E111"/>
</g>
<defs>
<clipPath id="clip0_141_69">
<rect width="73" height="73" rx="20" fill="white"/>
</clipPath>
</defs>
</svg>
