<svg width="73" height="73" viewBox="0 0 73 73" fill="none" xmlns="http://www.w3.org/2000/svg">
<g clip-path="url(#clip0_141_61)">
<path d="M73 36.5C73 16.3417 56.6583 0 36.5 0C16.3417 0 0 16.3417 0 36.5C0 54.7181 13.3476 69.8185 30.7969 72.5566V47.0508H21.5293V36.5H30.7969V28.4586C30.7969 19.3108 36.2462 14.2578 44.5836 14.2578C48.5769 14.2578 52.7539 14.9707 52.7539 14.9707V23.9531H48.1515C43.6172 23.9531 42.2031 26.7668 42.2031 29.6534V36.5H52.3262L50.7079 47.0508H42.2031V72.5566C59.6524 69.8185 73 54.7183 73 36.5Z" fill="#1877F2"/>
<path d="M50.7079 47.0508L52.3262 36.5H42.2031V29.6534C42.2031 26.7665 43.6172 23.9531 48.1515 23.9531H52.7539V14.9707C52.7539 14.9707 48.5769 14.2578 44.5833 14.2578C36.2462 14.2578 30.7969 19.3108 30.7969 28.4586V36.5H21.5293V47.0508H30.7969V72.5566C32.6835 72.8522 34.5903 73.0005 36.5 73C38.4097 73.0006 40.3165 72.8523 42.2031 72.5566V47.0508H50.7079Z" fill="white"/>
</g>
<defs>
<clipPath id="clip0_141_61">
<rect width="73" height="73" fill="white"/>
</clipPath>
</defs>
</svg>
