<svg width="73" height="73" viewBox="0 0 73 73" fill="none" xmlns="http://www.w3.org/2000/svg">
<path d="M30.4384 27.7172L45.9509 36.5326L30.4384 45.348V27.7172ZM73 7.82143V65.1786C73 69.4967 69.4967 73 65.1786 73H7.82143C3.50335 73 0 69.4967 0 65.1786V7.82143C0 3.50335 3.50335 0 7.82143 0H65.1786C69.4967 0 73 3.50335 73 7.82143ZM66.1562 36.5489C66.1562 36.5489 66.1562 26.8373 64.9179 22.177C64.2335 19.6025 62.2292 17.5819 59.671 16.8975C55.0596 15.6429 36.5 15.6429 36.5 15.6429C36.5 15.6429 17.9404 15.6429 13.329 16.8975C10.7708 17.5819 8.76652 19.6025 8.08214 22.177C6.84375 26.821 6.84375 36.5489 6.84375 36.5489C6.84375 36.5489 6.84375 46.2605 8.08214 50.9208C8.76652 53.4953 10.7708 55.4344 13.329 56.1188C17.9404 57.3571 36.5 57.3571 36.5 57.3571C36.5 57.3571 55.0596 57.3571 59.671 56.1025C62.2292 55.4181 64.2335 53.479 64.9179 50.9045C66.1562 46.2605 66.1562 36.5489 66.1562 36.5489Z" fill="#FF0000"/>
<path d="M30.4384 27.7172L45.9509 36.5326L30.4384 45.348V27.7172ZM73 7.82143V65.1786C73 69.4967 69.4967 73 65.1786 73H7.82143C3.50335 73 0 69.4967 0 65.1786V7.82143C0 3.50335 3.50335 0 7.82143 0H65.1786C69.4967 0 73 3.50335 73 7.82143ZM66.1562 36.5489C66.1562 36.5489 66.1562 26.8373 64.9179 22.177C64.2335 19.6025 62.2292 17.5819 59.671 16.8975C55.0596 15.6429 36.5 15.6429 36.5 15.6429C36.5 15.6429 17.9404 15.6429 13.329 16.8975C10.7708 17.5819 8.76652 19.6025 8.08214 22.177C6.84375 26.821 6.84375 36.5489 6.84375 36.5489C6.84375 36.5489 6.84375 46.2605 8.08214 50.9208C8.76652 53.4953 10.7708 55.4344 13.329 56.1188C17.9404 57.3571 36.5 57.3571 36.5 57.3571C36.5 57.3571 55.0596 57.3571 59.671 56.1025C62.2292 55.4181 64.2335 53.479 64.9179 50.9045C66.1562 46.2605 66.1562 36.5489 66.1562 36.5489Z" fill="white" fill-opacity="0.2"/>
</svg>
